<svg width="32" height="32" viewBox="0 0 32 32" fill="none" xmlns="http://www.w3.org/2000/svg">
<rect width="32" height="32" rx="7" fill="#171738"/>
<path d="M10.5113 17.4986C11.7385 16.624 13.3747 14 15.0109 14C17.0561 14 17.547 15.9243 17.8742 16.624C18.2833 17.4986 19.1014 20.1226 21.1467 21.4346C23.1919 22.7466 24.01 27.1199 21.1467 28.4319C18.2833 29.7439 15.829 28.4319 13.7837 27.9946C11.7385 27.5572 10.5113 28.4319 7.64793 27.5572C4.78457 26.6826 4.78457 24.9333 5.19362 22.3093C5.60268 19.6853 9.28414 18.3733 10.5113 17.4986Z" fill="#EAB1CD"/>
<ellipse cx="5.56539" cy="12.5893" rx="2.99271" ry="4.70282" transform="rotate(-22.5143 5.56539 12.5893)" fill="#EAB1CD"/>
<ellipse cx="12.406" cy="8.31404" rx="2.99271" ry="4.70282" transform="rotate(-3.10907 12.406 8.31404)" fill="#EAB1CD"/>
<ellipse cx="19.9796" cy="9.12955" rx="2.99271" ry="4.70282" transform="rotate(20.3871 19.9796 9.12955)" fill="#EAB1CD"/>
<ellipse cx="25.9651" cy="15.115" rx="2.99271" ry="4.70282" transform="rotate(32.1162 25.9651 15.115)" fill="#EAB1CD"/>
</svg>
